<svg xmlns="http://www.w3.org/2000/svg" width="768" height="768" viewBox="0 0 768 768" role="img" aria-labelledby="title desc">

<title id="title">Subactor square logo</title>
<desc id="desc">Square Subactor logo for app icons, social profiles and compact placements.</desc>
<rect width="768" height="768" rx="168" fill="#F4F8FB"/>
<g transform="translate(214,102) scale(5.3125)">
<rect x="4" y="4" width="56" height="56" rx="14" fill="none" stroke="#07111F" stroke-width="4"/>
<path d="M46 18 H18 V32 H46 V46 H18" fill="none" stroke="#22D3C5" stroke-width="5.5" stroke-linecap="round" stroke-linejoin="round"/>
<circle cx="46" cy="18" r="4.5" fill="#B7F75C"/>
<circle cx="18" cy="32" r="4.5" fill="#22D3C5" stroke="#07111F" stroke-width="1.6"/>
<circle cx="18" cy="46" r="4.5" fill="#B7F75C"/>
</g>
<path d="M1047 1085V813Q932 861 825.0 885.0Q718 909 623 909Q521 909 471.5 883.5Q422 858 422 805Q422 762 459.5 739.0Q497 716 594 705L657 696Q932 661 1027.0 581.0Q1122 501 1122 330Q1122 151 990.0 61.0Q858 -29 596 -29Q485 -29 366.5 -11.5Q248 6 123 41V313Q230 261 342.5 235.0Q455 209 571 209Q676 209 729.0 238.0Q782 267 782 324Q782 372 745.5 395.5Q709 419 600 432L537 440Q298 470 202.0 551.0Q106 632 106 797Q106 975 228.0 1061.0Q350 1147 602 1147Q701 1147 810.0 1132.0Q919 1117 1047 1085Z" transform="translate(116.000,575.000) scale(0.0400391,-0.0400391)" fill="#07111F"/>
<path d="M160 436V1120H520V1008Q520 917 519.0 779.5Q518 642 518 596Q518 461 525.0 401.5Q532 342 549 315Q571 280 606.5 261.0Q642 242 688 242Q800 242 864.0 328.0Q928 414 928 567V1120H1286V0H928V162Q847 64 756.5 17.5Q666 -29 557 -29Q363 -29 261.5 90.0Q160 209 160 436Z" transform="translate(165.408,575.000) scale(0.0400391,-0.0400391)" fill="#07111F"/>
<path d="M768 231Q883 231 943.5 315.0Q1004 399 1004 559Q1004 719 943.5 803.0Q883 887 768 887Q653 887 591.5 802.5Q530 718 530 559Q530 400 591.5 315.5Q653 231 768 231ZM530 956Q604 1054 694.0 1100.5Q784 1147 901 1147Q1108 1147 1241.0 982.5Q1374 818 1374 559Q1374 300 1241.0 135.5Q1108 -29 901 -29Q784 -29 694.0 17.5Q604 64 530 162V0H172V1556H530Z" transform="translate(224.385,575.000) scale(0.0400391,-0.0400391)" fill="#07111F"/>
<path d="M674 504Q562 504 505.5 466.0Q449 428 449 354Q449 286 494.5 247.5Q540 209 621 209Q722 209 791.0 281.5Q860 354 860 463V504ZM1221 639V0H860V166Q788 64 698.0 17.5Q608 -29 479 -29Q305 -29 196.5 72.5Q88 174 88 336Q88 533 223.5 625.0Q359 717 649 717H860V745Q860 830 793.0 869.5Q726 909 584 909Q469 909 370.0 886.0Q271 863 186 817V1090Q301 1118 417.0 1132.5Q533 1147 649 1147Q952 1147 1086.5 1027.5Q1221 908 1221 639Z" transform="translate(283.682,575.000) scale(0.0400391,-0.0400391)" fill="#07111F"/>
<path d="M1077 1085V793Q1004 843 930.5 867.0Q857 891 778 891Q628 891 544.5 803.5Q461 716 461 559Q461 402 544.5 314.5Q628 227 778 227Q862 227 937.5 252.0Q1013 277 1077 326V33Q993 2 906.5 -13.5Q820 -29 733 -29Q430 -29 259.0 126.5Q88 282 88 559Q88 836 259.0 991.5Q430 1147 733 1147Q821 1147 906.5 1131.5Q992 1116 1077 1085Z" transform="translate(339.616,575.000) scale(0.0400391,-0.0400391)" fill="#07111F"/>
<path d="M563 1438V1120H932V864H563V389Q563 311 594.0 283.5Q625 256 717 256H901V0H594Q382 0 293.5 88.5Q205 177 205 389V864H27V1120H205V1438Z" transform="translate(388.823,575.000) scale(0.0400391,-0.0400391)" fill="#07111F"/>
<path d="M705 891Q586 891 523.5 805.5Q461 720 461 559Q461 398 523.5 312.5Q586 227 705 227Q822 227 884.0 312.5Q946 398 946 559Q946 720 884.0 805.5Q822 891 705 891ZM705 1147Q994 1147 1156.5 991.0Q1319 835 1319 559Q1319 283 1156.5 127.0Q994 -29 705 -29Q415 -29 251.5 127.0Q88 283 88 559Q88 835 251.5 991.0Q415 1147 705 1147Z" transform="translate(428.621,575.000) scale(0.0400391,-0.0400391)" fill="#07111F"/>
<path d="M1004 815Q957 837 910.5 847.5Q864 858 817 858Q679 858 604.5 769.5Q530 681 530 516V0H172V1120H530V936Q599 1046 688.5 1096.5Q778 1147 903 1147Q921 1147 942.0 1145.5Q963 1144 1003 1139Z" transform="translate(485.556,575.000) scale(0.0400391,-0.0400391)" fill="#07111F"/>
<path d="M700 1294 426 551H975ZM586 1493H815L1384 0H1174L1038 383H365L229 0H16Z" transform="translate(176.000,642.000) scale(0.0087891,-0.0087891)" fill="#22D3C5"/>
<path d="M1319 1378V1165Q1217 1260 1101.5 1307.0Q986 1354 856 1354Q600 1354 464.0 1197.5Q328 1041 328 745Q328 450 464.0 293.5Q600 137 856 137Q986 137 1101.5 184.0Q1217 231 1319 326V115Q1213 43 1094.5 7.0Q976 -29 844 -29Q505 -29 310.0 178.5Q115 386 115 745Q115 1105 310.0 1312.5Q505 1520 844 1520Q978 1520 1096.5 1484.5Q1215 1449 1319 1378Z" transform="translate(191.013,642.000) scale(0.0087891,-0.0087891)" fill="#22D3C5"/>
<path d="M1319 1378V1165Q1217 1260 1101.5 1307.0Q986 1354 856 1354Q600 1354 464.0 1197.5Q328 1041 328 745Q328 450 464.0 293.5Q600 137 856 137Q986 137 1101.5 184.0Q1217 231 1319 326V115Q1213 43 1094.5 7.0Q976 -29 844 -29Q505 -29 310.0 178.5Q115 386 115 745Q115 1105 310.0 1312.5Q505 1520 844 1520Q978 1520 1096.5 1484.5Q1215 1449 1319 1378Z" transform="translate(206.282,642.000) scale(0.0087891,-0.0087891)" fill="#22D3C5"/>
<path d="M807 1356Q587 1356 457.5 1192.0Q328 1028 328 745Q328 463 457.5 299.0Q587 135 807 135Q1027 135 1155.5 299.0Q1284 463 1284 745Q1284 1028 1155.5 1192.0Q1027 1356 807 1356ZM807 1520Q1121 1520 1309.0 1309.5Q1497 1099 1497 745Q1497 392 1309.0 181.5Q1121 -29 807 -29Q492 -29 303.5 181.0Q115 391 115 745Q115 1099 303.5 1309.5Q492 1520 807 1520Z" transform="translate(221.550,642.000) scale(0.0087891,-0.0087891)" fill="#22D3C5"/>
<path d="M178 1493H381V586Q381 346 468.0 240.5Q555 135 750 135Q944 135 1031.0 240.5Q1118 346 1118 586V1493H1321V561Q1321 269 1176.5 120.0Q1032 -29 750 -29Q467 -29 322.5 120.0Q178 269 178 561Z" transform="translate(238.418,642.000) scale(0.0087891,-0.0087891)" fill="#22D3C5"/>
<path d="M201 1493H473L1135 244V1493H1331V0H1059L397 1249V0H201Z" transform="translate(254.293,642.000) scale(0.0087891,-0.0087891)" fill="#22D3C5"/>
<path d="M-6 1493H1257V1323H727V0H524V1323H-6Z" transform="translate(270.458,642.000) scale(0.0087891,-0.0087891)" fill="#22D3C5"/>
<path d="M700 1294 426 551H975ZM586 1493H815L1384 0H1174L1038 383H365L229 0H16Z" transform="translate(284.153,642.000) scale(0.0087891,-0.0087891)" fill="#22D3C5"/>
<path d="M403 713V166H727Q890 166 968.5 233.5Q1047 301 1047 440Q1047 580 968.5 646.5Q890 713 727 713ZM403 1327V877H702Q850 877 922.5 932.5Q995 988 995 1102Q995 1215 922.5 1271.0Q850 1327 702 1327ZM201 1493H717Q948 1493 1073.0 1397.0Q1198 1301 1198 1124Q1198 987 1134.0 906.0Q1070 825 946 805Q1095 773 1177.5 671.5Q1260 570 1260 418Q1260 218 1124.0 109.0Q988 0 737 0H201Z" transform="translate(299.166,642.000) scale(0.0087891,-0.0087891)" fill="#22D3C5"/>
<path d="M201 1493H403V170H1130V0H201Z" transform="translate(314.215,642.000) scale(0.0087891,-0.0087891)" fill="#22D3C5"/>
<path d="M201 1493H1145V1323H403V881H1114V711H403V170H1163V0H201Z" transform="translate(326.943,642.000) scale(0.0087891,-0.0087891)" fill="#22D3C5"/>
<path d="M700 1294 426 551H975ZM586 1493H815L1384 0H1174L1038 383H365L229 0H16Z" transform="translate(351.276,642.000) scale(0.0087891,-0.0087891)" fill="#22D3C5"/>
<path d="M178 1493H381V586Q381 346 468.0 240.5Q555 135 750 135Q944 135 1031.0 240.5Q1118 346 1118 586V1493H1321V561Q1321 269 1176.5 120.0Q1032 -29 750 -29Q467 -29 322.5 120.0Q178 269 178 561Z" transform="translate(366.290,642.000) scale(0.0087891,-0.0087891)" fill="#22D3C5"/>
<path d="M-6 1493H1257V1323H727V0H524V1323H-6Z" transform="translate(382.165,642.000) scale(0.0087891,-0.0087891)" fill="#22D3C5"/>
<path d="M807 1356Q587 1356 457.5 1192.0Q328 1028 328 745Q328 463 457.5 299.0Q587 135 807 135Q1027 135 1155.5 299.0Q1284 463 1284 745Q1284 1028 1155.5 1192.0Q1027 1356 807 1356ZM807 1520Q1121 1520 1309.0 1309.5Q1497 1099 1497 745Q1497 392 1309.0 181.5Q1121 -29 807 -29Q492 -29 303.5 181.0Q115 391 115 745Q115 1099 303.5 1309.5Q492 1520 807 1520Z" transform="translate(395.860,642.000) scale(0.0087891,-0.0087891)" fill="#22D3C5"/>
<path d="M201 1493H473L1135 244V1493H1331V0H1059L397 1249V0H201Z" transform="translate(412.728,642.000) scale(0.0087891,-0.0087891)" fill="#22D3C5"/>
<path d="M807 1356Q587 1356 457.5 1192.0Q328 1028 328 745Q328 463 457.5 299.0Q587 135 807 135Q1027 135 1155.5 299.0Q1284 463 1284 745Q1284 1028 1155.5 1192.0Q1027 1356 807 1356ZM807 1520Q1121 1520 1309.0 1309.5Q1497 1099 1497 745Q1497 392 1309.0 181.5Q1121 -29 807 -29Q492 -29 303.5 181.0Q115 391 115 745Q115 1099 303.5 1309.5Q492 1520 807 1520Z" transform="translate(428.893,642.000) scale(0.0087891,-0.0087891)" fill="#22D3C5"/>
<path d="M201 1493H502L883 477L1266 1493H1567V0H1370V1311L985 287H782L397 1311V0H201Z" transform="translate(445.761,642.000) scale(0.0087891,-0.0087891)" fill="#22D3C5"/>
<path d="M-4 1493H213L627 879L1038 1493H1255L727 711V0H524V711Z" transform="translate(463.991,642.000) scale(0.0087891,-0.0087891)" fill="#22D3C5"/>
</svg>